<svg id="图层_1" data-name="图层 1" xmlns="http://www.w3.org/2000/svg" viewBox="0 0 512 512"><title>画板 50</title><path d="M465.9,184.8a24.8,24.8,0,0,0-33.3-11.2c-29,14.7-74.6,22.4-107,22.4h-137c-32.4,0-78.1-7.7-107.1-22.4a24.6,24.6,0,0,0-33.2,11.2,25.3,25.3,0,0,0,11.1,33.6c35.8,18,89.2,27.6,129.2,27.6h137c40,0,93.3-9.6,129.2-27.6A25.3,25.3,0,0,0,465.9,184.8Z" fill="#7e6cff"/><path d="M412.1,395.7a12.2,12.2,0,0,0-12-.5L257,442.9,113.9,395.2a12.2,12.2,0,0,0-12,.5A12.4,12.4,0,0,0,96,406.2v50.4A12.3,12.3,0,0,0,108.4,469H405.6A12.3,12.3,0,0,0,418,456.6V406.2A12.4,12.4,0,0,0,412.1,395.7Z" fill="#ffc46e"/><path d="M376.8,105.4a70.8,70.8,0,0,0-70-59.4h-.4A70.7,70.7,0,0,0,257,66.3a70.9,70.9,0,0,0-119.6,39.1l-9.6,58c20.8,5,43.4,7.6,60.7,7.6H325.7c17.3,0,39.9-2.6,60.7-7.6Z" fill="#7e6cff"/><path d="M208,270H132.8a12.4,12.4,0,0,0-12.4,12.2A37.5,37.5,0,0,0,157.9,320h25a37.5,37.5,0,0,0,37.5-37.8A12.4,12.4,0,0,0,208,270Z" fill="#ffc46e"/><path d="M381.4,270H306.2a12.4,12.4,0,0,0-12.4,12.2A37.5,37.5,0,0,0,331.3,320h25a37.5,37.5,0,0,0,37.5-37.8A12.4,12.4,0,0,0,381.4,270Z" fill="#ffc46e"/><path d="M272,270H242.2a37.1,37.1,0,0,1,2.3,12.6,57.7,57.7,0,0,1-1.3,12.5h27.7a63.6,63.6,0,0,1-1.2-12.4A37.1,37.1,0,0,1,272,270Z" fill="#7e6cff"/><path d="M355.9,345H331.2A61.1,61.1,0,0,1,282,319.9H245a12.5,12.5,0,1,0-.4,25,12.5,12.5,0,1,1-.4,25,37.2,37.2,0,0,1-36-30.7,59.8,59.8,0,0,1-25.4,5.7H158.1A61,61,0,0,1,121,332.2v40.1l2.2.7L257,418.1,390.8,373l2.2-.7V332.2A61,61,0,0,1,355.9,345Z" fill="#7e6cff"/></svg>